<?xml version="1.0" encoding="UTF-8"?>
<svg width="1200pt" height="1200pt" version="1.1" viewBox="0 0 1200 1200" xmlns="http://www.w3.org/2000/svg" fill="#fb923c">
 <path d="m631.15 608.2c-11.297-12.141-21.633-29.719-29.367-54.914-3.7422-12.914-9.9492-24.98-18.281-35.531-12.188-14.93-31.875-30.773-59.812-28.969-33.539 2.1562-60.047 29.18-64.734 62.812-2.2578 16.488-0.97266 33.27 3.7734 49.219 12.137 40.234 43.941 71.508 84.375 82.969 47.203 13.664 131.41 26.273 251.09 0 56.461-12.375 111.98 23.109 125.77 79.828 3.8281 16.125 8.7148 31.977 14.625 47.461 8.0625 20.586 21.406 38.68 38.688 52.469s37.891 22.781 59.75 26.07l1.4766 0.21094c18.652 2.7383 35.914 11.453 49.195 24.828 13.281 13.379 21.867 30.703 24.469 49.375 6.3516 44.742 18.75 104.81 42.328 164.3 7.0312 17.672-14.695 32.461-28.406 19.383-29.391-28.125-56.578-70.734-83.062-113.98-10.23-16.754-27.469-27.996-46.922-30.609-41.719-5.4844-120.45-29.719-179.91-130.52-9.0312-15.43-22.23-27.996-38.086-36.254-15.855-8.2617-33.719-11.875-51.539-10.434-68.906 5.8594-182.58 6.1875-278.91-37.758 0 0-122.91-55.523-146.39-199.03-10.898-66.656 7.0312-135.47 52.523-184.99 30.469-33.047 76.289-62.555 144.3-65.953 56.738-2.7656 112.86 12.852 160.01 44.531 37.852 25.406 78 65.625 87.117 124.71 3.9609 22.359 3.7891 45.254-0.51562 67.547-11.367 53.344-76.547 72.984-113.55 33.234z"/>
 <path d="m232.69 1067.8c17.648 14.414 39.984 33.398 63.117 54.914 25.445 23.793 59.367 36.383 94.172 34.949 34.805-1.4297 67.582-16.766 90.984-42.566l3.1406-3.5156c15.719-17.504 37.594-28.254 61.055-30 32.578-2.5781 79.945-13.805 111.07-54.188 2.2852-2.9922 3.3047-6.7617 2.8477-10.5-0.46094-3.7383-2.3633-7.1484-5.3047-9.5-2.9414-2.3516-6.6875-3.4609-10.434-3.0859-38.289 4.2422-76.859 5.418-115.34 3.5156-30.312-1.6797-59.902 9.6602-81.328 31.172-22.969 22.734-62.297 42.656-123.09 18.047-23.879-13.234-50.281-21.27-77.484-23.578-18.75-1.3125-27.914 22.453-13.406 34.336z"/>
 <path d="m346.34 324.73c-9.7969 23.062-25.781 49.922-51.703 69.188-16.461 11.988-36.195 18.664-56.555 19.125-16.387 0.42188-32.59 3.5898-47.93 9.375-56.93 22.43-73.969 83.297-35.625 131.39 5.9844 7.5234 13.301 13.879 21.586 18.75 18.367 10.793 33.906 25.801 45.328 43.781 11.719 18.75 21.352 44.531 16.664 89.695-0.21094 1.9688-2.0156 29.461 0.75 48.164 4.2969 29.531 17.211 57.137 37.125 79.359 29.297 32.578 73.547 46.875 116.6 40.125 41.391-6.4922 114.84-13.289 158.58 10.406 15.938 8.6484 9.6328 32.93-8.4609 32.672-27.328-0.42187-61.148 4.6875-88.008 26.906 0 0-38.578 25.172-96.422 29.836-105.87 8.5078-198.52-75-197.95-182.27 0-2.1328 0-4.2656 0.14062-6.4453 3.3281-94.031-39.68-137.67-59.203-152.55-14.293-10.668-26.391-24-35.625-39.258-17.789-29.707-24.73-64.66-19.641-98.906 5.1328-36.188 23.438-69.047 49.594-94.195 23.719-22.711 59.812-48.75 103.55-52.805 44.246-4.3477 86.91-18.781 124.71-42.188 12.938-8.0391 28.547 5.6484 22.5 19.852z"/>
 <path d="m119.95 251.02c17.027 9.707 35.754 16.07 55.172 18.75 41.121 5.6562 82.922-3.3086 118.1-25.336 28.824-17.652 55.703-38.309 80.18-61.617 9.9883-9.6367 23.289-15.078 37.164-15.203 13.879-0.12891 27.277 5.0703 37.438 14.523 2.4375 2.25 4.9844 4.5391 7.6406 6.8672 47.781 41.668 109.75 63.375 173.09 60.633 20.43-0.70312 40.75-3.2344 60.727-7.5703 34.945-7.875 87.07 0.21094 105.35 31.336 9.0234 15.328 11.719 41.578 7.0312 74.555 0 0-24.539 153.14 58.594 207.56 5.5273 3.6094 12.258 4.8906 18.723 3.5625s12.148-5.1562 15.805-10.652c3.6562-5.4961 4.9961-12.215 3.7227-18.691-5.9766-32.414-7.7109-81.914 13.172-143.7 11.742-34.973 14.223-72.395 7.1953-108.61-16.922-89.531-98.344-151.55-188.34-146.18-25.402 1.4531-50.59 5.5039-75.164 12.094-33.371 8.7891-68.93 0.75-95.273-21.539-38.648-32.391-83.789-81.211-151.29-79.617 0 0-79.312-5.1562-142.31 81.211-13.504 19-29.891 35.781-48.562 49.734-22.617 16.406-53.906 33.773-90.656 38.648-19.852 2.6484-24.891 29.18-7.5 39.234z"/>
 <path d="m1041.4 398.95c-27.961 11.227-66 38.508-76.688 104.58-5.082 32.652-2.2109 66.051 8.3672 97.359 9.6094 28.344 17.535 57.23 23.742 86.508 4.1016 20.555 26.859 26.156 37.758 9.375 16.242-24.883 30.566-50.965 42.844-78.023 18.137-41.352 27.23-86.098 26.672-131.25 0.10547-16.094-0.94141-32.176-3.1406-48.117-5.1328-31.852-33.469-50.906-59.555-40.43z"/>
</svg>
