<svg xmlns="http://www.w3.org/2000/svg" width="708" viewBox="0 0 531 719.999996" height="960" preserveAspectRatio="xMidYMid meet" version="1.0"><path fill="#fb923c" d="M 312.859375 721.378906 C 360.621094 677.316406 402.484375 631.933594 398.695312 560.199219 C 392.347656 569.011719 386.09375 578.441406 379.65625 587.515625 C 359.039062 616.332031 333.917969 639.335938 299.023438 649.203125 L 299.027344 649.203125 C 294.363281 650.878906 289.433594 651.6875 284.484375 651.585938 C 277.347656 650.878906 274.703125 645.417969 274.261719 633.082031 C 274.21875 632.226562 274.21875 631.375 274.261719 630.523438 C 273.558594 593.511719 287.925781 560.640625 303.433594 528.210938 C 313.832031 506.445312 324.847656 484.941406 333.832031 462.644531 C 345.980469 433.832031 347.574219 401.65625 338.328125 371.789062 C 336.566406 438.851562 156.96875 571.566406 230.464844 668.503906 C 186.402344 676.171875 148.066406 638.632812 130.792969 570.949219 C 128.855469 563.550781 127.269531 555.792969 125.859375 547.6875 C 123.746094 552.535156 96.957031 603.734375 115.019531 654.582031 C 127.09375 690.800781 156.351562 709.75 189.484375 724.464844 C 50.6875 706.839844 -46.25 490.230469 53.773438 352.136719 C 24.78125 399.898438 38.613281 528.386719 59.855469 454.800781 C 59.855469 454.800781 98.980469 303.050781 30.769531 275.203125 C 70.339844 258.902344 115.988281 286.660156 126.121094 334.511719 C 128.835938 351.546875 130.484375 368.734375 131.058594 385.976562 C 131.164062 397.78125 132.136719 409.5625 133.964844 421.226562 C 139.871094 446.078125 161.898438 452.070312 180.054688 434.003906 C 200.238281 414 205.875 387.914062 206.492188 360.949219 C 207.007812 319.3125 196.453125 278.285156 175.914062 242.066406 C 134.933594 187.695312 135.730469 59.472656 192.394531 2.191406 C 158.464844 72.691406 259.105469 246.738281 283.515625 221.09375 C 283.515625 221.09375 267.652344 134.289062 279.550781 87.320312 C 285.191406 102.566406 289.507812 115.167969 294.53125 127.417969 C 312.261719 169.734375 339.382812 207.464844 373.84375 237.75 C 435.003906 293.355469 452.097656 361.125 431.742188 439.644531 C 414.644531 489.082031 478.976562 455.683594 494.574219 361.742188 C 548.59375 473.917969 472.984375 658.980469 312.859375 721.375 Z M 312.859375 721.378906 " fill-opacity="1" fill-rule="nonzero"/></svg>
