<svg xmlns="http://www.w3.org/2000/svg" width="1200pt" height="1200pt" version="1.1" viewBox="0 0 1200 1200" fill="#fb923c">
 <path d="m82.031 487.5c48.68 8.6484 125.72 26.766 192.87 62.062 22.465 11.863 38.637 32.934 44.293 57.699s0.23047 50.77-14.855 71.207c-3.7969 5.0586-7.8828 9.8945-12.234 14.484-2.8555 3.043-4.4141 7.082-4.3398 11.258 0.078125 4.1719 1.7773 8.1523 4.7383 11.094 2.9648 2.9375 6.957 4.6055 11.133 4.6484 32.812 0.35156 76.57 4.5469 109.85 21.094l-45.047 45.047c-9.5586 9.5703-22.23 15.391-35.719 16.406l-56.93 4.2656c-16.945 1.2539-32.875 8.5586-44.883 20.578l-86.789 87c-3.707 3.7109-4.6094 9.3867-2.2383 14.066 2.3711 4.6797 7.4805 7.3047 12.668 6.5117 20.449-3.1992 41.074-5.1484 61.758-5.8359 13.953-0.33594 27.438 5.0586 37.305 14.93 9.8672 9.875 15.258 23.359 14.914 37.312-0.67188 20.684-2.6133 41.309-5.8125 61.758-0.79297 5.1875 1.832 10.297 6.5117 12.668 4.6797 2.3711 10.355 1.4688 14.066-2.2383l86.719-86.836c12.016-12.012 19.316-27.941 20.578-44.883l4.3828-56.953c1.0156-13.488 6.8359-26.16 16.406-35.719l45.797-45.797c18 33.633 22.453 79.195 22.805 112.97 0.042969 4.1758 1.7109 8.168 4.6484 11.133 2.9414 2.9609 6.9219 4.6602 11.094 4.7383 4.1758 0.074219 8.2148-1.4844 11.258-4.3398 4.5859-4.3594 9.4219-8.4453 14.484-12.234 20.438-15.086 46.441-20.512 71.207-14.855s45.836 21.828 57.699 44.293c35.391 67.172 53.508 144.21 62.133 192.94 1.1406 6.2305 6.3047 10.93 12.617 11.48 6.3125 0.54688 12.211-3.1953 14.406-9.1367 18.117-49.523 28.898-101.6 34.289-132.75 1.0898-6.2734 5.4336-11.496 11.398-13.715 5.9688-2.2188 12.668-1.1016 17.594 2.9336 7.5703 6.1953 14.77 12.832 21.562 19.875 3.5859 3.6523 8.4883 5.7188 13.605 5.7344 5.1211 0.015625 10.035-2.0195 13.641-5.6523 3.6094-3.6289 5.6133-8.5547 5.5664-13.676-0.49219-62.883-22.5-123.35-47.672-172.12-26.91-51.656-61.641-98.848-102.96-139.9-15.492-15.469-31.477-30.984-40.383-37.5-11.32-8.3906-25.102 6.6562-15.703 17.156 83.133 92.812 130.95 175.08 110.46 195.59-24.258 24.258-135.07-47.203-247.48-159.63-112.41-112.43-183.8-223.41-159.54-247.66 20.508-20.484 102.77 27.328 195.59 110.46 10.5 9.375 25.547-4.3828 17.156-15.703-6.5859-8.9062-22.102-24.891-37.5-40.383-41.051-41.32-88.242-76.051-139.9-102.96-48.773-25.172-109.24-47.18-172.12-47.672-5.1211-0.046874-10.047 1.957-13.676 5.5664-3.6328 3.6055-5.668 8.5195-5.6523 13.641 0.015625 5.1172 2.082 10.02 5.7344 13.605 7.043 6.793 13.68 13.992 19.875 21.562 4.0352 4.9258 5.1523 11.625 2.9336 17.594-2.2188 5.9648-7.4414 10.309-13.715 11.398-31.148 5.3906-83.227 16.172-132.75 34.289-6.0352 2.1094-9.8867 8.0195-9.3789 14.391 0.50391 6.3711 5.2461 11.598 11.535 12.727z"/>
 <path d="m483.16 196.1c0 9.2031-9.6328 16.664-21.516 16.664-11.883 0-21.516-7.4609-21.516-16.664 0-9.2031 9.6328-16.664 21.516-16.664 11.883 0 21.516 7.4609 21.516 16.664z"/>
 <path d="m1020.6 738.35c0 11.883-7.4609 21.516-16.664 21.516-9.2031 0-16.664-9.6328-16.664-21.516 0-11.883 7.4609-21.516 16.664-21.516 9.2031 0 16.664 9.6328 16.664 21.516z"/>
 <path d="m1112.4 71.555c-102.98 43.852-215.62 54.445-265.45 51.375-3.8945-0.25391-7.4883 2.0898-8.8281 5.7539-1.3398 3.6641-0.10156 7.7734 3.0391 10.09l46.102 34.289c4.7852 3.5703 10.922 4.8008 16.711 3.3516l14.461-3.6094c6.8438-1.8594 14.164-0.089844 19.406 4.6875 3.8516 3.7148 6.0469 8.8203 6.0938 14.172 0.050781 5.3516-2.0547 10.496-5.8359 14.281l-0.84375 0.96094c-36.25 41.562-73.359 82.336-111.33 122.32-5.5703 5.8828-8.6445 13.695-8.5781 21.797 0.0625 8.1016 3.2656 15.863 8.9297 21.656l0.44531 0.44531c5.7461 5.9023 13.586 9.3086 21.82 9.4805 8.2383 0.16797 16.211-2.9062 22.195-8.5664 40.156-38.047 81.094-75.227 122.81-111.54 2.9023-3.0039 6.6562-5.043 10.758-5.8438 4.0977-0.80078 8.3438-0.32422 12.164 1.3672 4.207 1.957 7.5977 5.3203 9.5977 9.5078 1.9961 4.1836 2.4727 8.9375 1.3477 13.438l-3.7969 15.211c-1.4492 5.7891-0.21875 11.926 3.3516 16.711l34.289 46.102c2.3164 3.1406 6.4258 4.3789 10.09 3.0391 3.6641-1.3398 6.0078-4.9336 5.7539-8.8281-3.0703-49.852 7.5234-162.47 51.375-265.45 2.0312-4.6133 1.0352-10-2.5195-13.578-3.5508-3.5781-8.9297-4.6172-13.559-2.6172z"/>
 <path d="m544.1 613.03c-5.6328 5.625-8.7969 13.262-8.7969 21.223 0 7.9609 3.1641 15.598 8.7969 21.223l0.44531 0.44531c5.6367 5.6094 13.262 8.7539 21.211 8.7539 7.9492 0 15.574-3.1445 21.211-8.7539l143.37-143.37c24.844-5.4609 52.383-6.2109 76.102 5.9297 0 0 62.086 33.914 63.844 140.06 0.12891 3.168 2.3594 5.8594 5.4453 6.5703 3.0898 0.71094 6.2734-0.73047 7.7734-3.5234 10.242-21.234 25.781-44.18 48.398-55.805 9.1406-4.6523 19.617-5.9727 29.629-3.7266 10.008 2.2461 18.918 7.918 25.191 16.031 5.5664 7.25 10.285 15.113 14.062 23.438 1.7227 3.7812 5.8086 5.8906 9.8906 5.1055 4.0781-0.78516 7.0938-4.2617 7.2891-8.4102 1.7109-38.461 0.65625-95.555-14.062-148.45-5.8516-20.742-16.188-39.945-30.281-56.25-15.047-17.516-31.297-33.965-48.633-49.219-9.7969-8.5312-23.438 4.6875-15.375 14.789 28.5 36.023 56.062 78.984 43.453 97.922-13.336 19.992-86.719-25.148-155.67-94.102-68.953-68.953-114.26-142.48-94.266-155.81 18.938-12.609 61.898 14.953 97.922 43.453 10.172 8.0625 23.438-5.5781 14.789-15.398-15.254-17.328-31.699-33.57-49.219-48.609-16.566-14.258-36.09-24.664-57.164-30.469-52.664-14.578-109.38-15.586-147.66-13.898-4.1484 0.19531-7.625 3.2109-8.4102 7.2891-0.78516 4.082 1.3242 8.168 5.1055 9.8906 8.3242 3.7773 16.188 8.4961 23.438 14.062 8.1016 6.2695 13.766 15.164 16.016 25.156s0.94531 20.457-3.6875 29.594c-11.719 22.57-34.57 38.18-55.828 48.398-2.793 1.5039-4.2344 4.6914-3.5195 7.7812 0.71875 3.0938 3.418 5.3203 6.5898 5.4375 106.15 1.7578 140.06 63.844 140.06 63.844 12.141 23.719 11.391 51.258 5.9297 76.102z"/>
</svg>
