<svg xmlns="http://www.w3.org/2000/svg" width="1080" viewBox="0 0 810 809.999993" height="1080" preserveAspectRatio="xMidYMid meet" version="1.0"><path fill="#fb923c" d="M 493.601562 0 L 484.359375 0 C 477.367188 0 471.703125 5.664062 471.703125 12.65625 C 471.703125 19.648438 477.367188 25.3125 484.359375 25.3125 C 508.945312 26.671875 530.492188 42.144531 539.667969 64.988281 C 548.8125 87.835938 543.847656 113.9375 526.980469 131.847656 C 510.117188 149.785156 484.394531 156.304688 461.011719 148.585938 C 437.660156 140.832031 420.890625 120.265625 418.042969 95.808594 L 448.292969 80.621094 C 451.738281 79.257812 454.429688 76.445312 455.632812 72.898438 C 456.234375 69.546875 455.472656 66.066406 453.480469 63.28125 L 415.511719 6.328125 C 413.171875 2.816406 409.214844 0.726562 405.007812 0.726562 C 400.800781 0.726562 396.84375 2.816406 394.503906 6.328125 L 356.535156 63.28125 C 354.507812 66.285156 353.84375 70.019531 354.761719 73.53125 C 355.710938 77.011719 358.117188 79.890625 361.34375 81.503906 L 391.589844 96.691406 C 388.425781 121.023438 371.46875 141.304688 348.117188 148.773438 C 324.734375 156.242188 299.167969 149.53125 282.496094 131.5625 C 265.789062 113.589844 260.980469 87.613281 270.15625 64.863281 C 279.300781 42.113281 300.78125 26.703125 325.273438 25.3125 C 332.265625 25.3125 337.929688 19.648438 337.929688 12.65625 C 337.929688 5.664062 332.265625 0 325.273438 0 L 316.035156 0 C 248.195312 0 185.550781 36.195312 151.628906 94.925781 C 117.707031 153.652344 117.710938 226.050781 151.628906 284.773438 C 185.550781 343.5 248.195312 379.699219 316.035156 379.699219 L 325.273438 379.699219 C 332.265625 379.699219 337.929688 374.035156 337.929688 367.042969 C 337.929688 360.050781 332.265625 354.386719 325.273438 354.386719 C 305.339844 353.121094 287.175781 342.554688 276.261719 325.816406 C 265.3125 309.109375 262.941406 288.195312 269.808594 269.433594 C 276.703125 250.703125 292.019531 236.273438 311.160156 230.578125 C 330.304688 224.882812 351.027344 228.554688 367.039062 240.480469 L 367.039062 432.609375 C 351.914062 437.953125 341.757812 452.257812 341.726562 468.296875 C 341.757812 477.632812 345.207031 486.648438 351.472656 493.609375 C 338.59375 508.039062 338.59375 529.808594 351.472656 544.234375 C 338.59375 558.664062 338.59375 580.433594 351.472656 594.859375 C 338.59375 609.289062 338.59375 631.058594 351.472656 645.484375 C 338.59375 659.914062 338.59375 681.683594 351.472656 696.109375 C 338.59375 710.539062 338.59375 732.308594 351.472656 746.734375 C 345.207031 753.695312 341.757812 762.714844 341.726562 772.046875 C 341.726562 793.027344 358.71875 810.015625 379.695312 810.015625 L 430.320312 810.015625 C 451.296875 810.015625 468.289062 793.027344 468.289062 772.046875 C 468.257812 762.714844 464.808594 753.695312 458.542969 746.734375 C 471.421875 732.308594 471.421875 710.539062 458.542969 696.109375 C 471.421875 681.683594 471.421875 659.914062 458.542969 645.484375 C 471.421875 631.058594 471.421875 609.289062 458.542969 594.859375 C 471.421875 580.433594 471.421875 558.664062 458.542969 544.234375 C 471.421875 529.808594 471.421875 508.039062 458.542969 493.609375 C 464.808594 486.648438 468.257812 477.632812 468.289062 468.296875 C 468.257812 452.257812 458.101562 437.953125 442.976562 432.609375 L 442.976562 240.480469 C 458.988281 228.554688 479.710938 224.882812 498.851562 230.578125 C 517.996094 236.273438 533.308594 250.703125 540.207031 269.433594 C 547.074219 288.195312 544.699219 309.109375 533.753906 325.816406 C 522.835938 342.554688 504.675781 353.121094 484.742188 354.386719 C 477.75 354.386719 472.085938 360.050781 472.085938 367.042969 C 472.085938 374.035156 477.75 379.699219 484.742188 379.699219 L 493.980469 379.699219 C 561.820312 379.636719 624.433594 343.378906 658.289062 284.621094 C 692.144531 225.832031 692.082031 153.472656 658.101562 94.769531 C 624.117188 36.042969 561.433594 -0.0546875 493.597656 0.0078125 Z M 493.601562 0 " fill-opacity="1" fill-rule="nonzero"/></svg>
