<svg xmlns="http://www.w3.org/2000/svg" width="1080" viewBox="0 0 810 570" height="760" preserveAspectRatio="xMidYMid meet" version="1.0"><path fill="#fb923c" d="M 634.460938 339.667969 C 632.195312 333.222656 629.929688 326.429688 627.628906 319.980469 C 726.035156 293.5 776.347656 228.410156 777.5 126.238281 C 784.332031 126.625 791.125 127.390625 798.300781 127.738281 C 808.164062 249.207031 754.433594 318.480469 634.460938 339.660156 Z M 35.398438 126.238281 C 28.566406 126.621094 21.390625 127.386719 14.597656 127.734375 C 4.734375 249.203125 58.5 318.476562 178.4375 339.660156 C 180.699219 333.210938 182.964844 326.417969 185.230469 319.972656 C 86.480469 293.488281 36.167969 228.402344 35.398438 126.230469 Z M 182.96875 69.476562 C 199.625 62.683594 217.050781 54.699219 234.433594 46.023438 L 212.480469 17.625 C 208.683594 12.710938 202.273438 10.449219 198.855469 13.480469 L 168.578125 36.929688 C 164.777344 39.578125 164.777344 46.410156 168.960938 51.320312 Z M 192.0625 302.210938 C 215.515625 243.570312 253.355469 185.65625 307.46875 125.101562 C 308.234375 123.949219 308.234375 122.835938 309.347656 122.070312 C 309.730469 121.683594 310.5 122.070312 310.84375 121.683594 C 316.910156 114.890625 322.589844 108.445312 328.996094 101.613281 L 282.828125 42.203125 C 273.347656 47.113281 264.289062 52.027344 255.195312 56.976562 L 254.8125 56.976562 C 254.8125 57.363281 254.425781 56.976562 254.042969 57.363281 C 182.121094 94.4375 117.035156 116.003906 54.242188 123.949219 C 54.320312 219.703125 99.722656 278.003906 192.054688 302.222656 Z M 201.925781 450.167969 C 188.304688 457.730469 183.390625 469.472656 181.507812 477.800781 C 178.09375 491.425781 181.125 507.316406 189.070312 519.058594 C 192.101562 523.589844 195.132812 528.882812 198.164062 534.179688 C 204.230469 545.542969 211.40625 558.015625 218.582031 558.398438 C 222.382812 558.015625 234.855469 554.597656 259.074219 517.140625 C 296.914062 457.730469 347.613281 404.734375 393.398438 357.058594 C 382.804688 346.464844 372.210938 335.488281 361.621094 324.511719 C 313.914062 374.097656 261.683594 415.351562 201.921875 450.167969 Z M 610.976562 449.785156 C 544.734375 411.945312 491.386719 366.542969 445.605469 318.113281 C 445.21875 318.113281 444.835938 318.113281 444.453125 317.730469 C 444.070312 317.347656 444.453125 316.960938 444.070312 316.578125 C 392.988281 262.082031 351.730469 203.820312 314.65625 145.527344 C 300.265625 161.796875 287.410156 178.070312 275.320312 194.34375 C 314.65625 248.457031 361.597656 297.277344 406.992188 344.214844 C 408.871094 346.097656 410.789062 348.359375 412.671875 350.28125 L 413.054688 350.28125 L 413.054688 350.664062 C 465.289062 404.777344 514.832031 456.242188 553.445312 517.1875 C 565.574219 535.726562 574.628906 545.933594 581.078125 551.613281 C 587.910156 557.296875 592.054688 558.40625 594.320312 558.40625 C 601.496094 558.023438 608.710938 545.167969 614.738281 533.808594 C 617.769531 528.511719 620.417969 523.597656 623.449219 519.03125 C 631.394531 507.285156 634.425781 491.78125 631.394531 477.773438 C 629.550781 469.097656 624.253906 457.738281 610.976562 449.796875 Z M 537.59375 194.375 C 525.46875 178.488281 512.609375 162.214844 498.21875 145.558594 C 471.351562 188.3125 444.871094 225.386719 418.351562 258.703125 C 428.945312 271.558594 439.921875 284.414062 451.28125 296.925781 C 478.914062 267.796875 509.195312 233.332031 537.59375 194.371094 Z M 758.574219 123.988281 C 695.75 116.042969 630.652344 94.476562 558.777344 57.402344 C 558.390625 57.019531 558.007812 57.402344 557.664062 57.019531 L 557.664062 56.632812 C 548.566406 52.105469 539.507812 47.15625 530.03125 42.242188 L 483.859375 101.652344 C 550.101562 171.273438 594.351562 235.976562 620.828125 302.222656 C 713.167969 278.003906 758.574219 219.707031 758.574219 123.988281 Z M 643.902344 51.300781 C 648.046875 46.386719 648.046875 39.554688 644.285156 36.90625 L 614.003906 13.457031 C 610.589844 10.808594 604.179688 12.691406 600.378906 17.601562 L 578.425781 46.003906 C 595.851562 54.714844 613.238281 62.660156 629.894531 69.453125 Z M 643.902344 51.300781 " fill-opacity="1" fill-rule="nonzero"/></svg>
