<svg xmlns="http://www.w3.org/2000/svg" width="1080" viewBox="0 0 810 809.999993" height="1080" preserveAspectRatio="xMidYMid meet" version="1.0"><path fill="#4a9e4a" d="M 201.132812 658.230469 L 406.355469 453.007812 L 611.578125 658.230469 C 555.414062 703.589844 484.003906 730.804688 406.355469 730.804688 C 328.707031 730.804688 257.296875 703.589844 201.132812 658.230469 Z M 406.355469 76.496094 C 484.003906 76.496094 555.414062 103.703125 611.578125 149.066406 L 406.355469 354.289062 L 201.132812 149.066406 C 257.296875 103.703125 328.699219 76.496094 406.355469 76.496094 Z M 556.4375 438.554688 L 687.929688 570.046875 C 679.863281 583.65625 670.832031 596.628906 660.941406 608.875 L 490.621094 438.554688 Z M 255.765625 438.554688 L 322.09375 438.554688 L 151.773438 608.875 C 141.800781 596.53125 132.710938 583.449219 124.59375 569.726562 Z M 157.046875 438.554688 L 94.140625 501.460938 C 87.800781 481.261719 83.375 460.222656 81.066406 438.554688 Z M 157.695312 368.75 L 81.066406 368.75 C 83.394531 346.910156 87.875 325.707031 94.300781 305.355469 Z M 256.414062 368.75 L 124.839844 237.171875 C 132.894531 223.597656 141.90625 210.65625 151.777344 198.429688 L 322.09375 368.75 Z M 556.441406 368.75 L 490.625 368.75 L 660.945312 198.429688 C 670.835938 210.683594 679.863281 223.652344 687.933594 237.257812 Z M 655.164062 368.75 L 718.457031 305.457031 C 724.863281 325.773438 729.332031 346.945312 731.65625 368.75 Z M 731.652344 438.554688 C 729.332031 460.359375 724.863281 481.527344 718.457031 501.847656 L 655.164062 438.554688 Z M 803.328125 403.652344 C 803.328125 184.765625 625.25 6.6875 406.363281 6.6875 C 187.472656 6.6875 9.398438 184.765625 9.398438 403.652344 C 9.398438 622.542969 187.472656 800.617188 406.363281 800.617188 C 625.25 800.617188 803.328125 622.542969 803.328125 403.652344 Z M 803.328125 403.652344 " fill-opacity="1" fill-rule="nonzero"/></svg>
