<?xml version="1.0" encoding="UTF-8"?>
<svg width="1200pt" height="1200pt" version="1.1" viewBox="0 0 1200 1200" xmlns="http://www.w3.org/2000/svg" fill="#3b82f6">
 <path d="m1127.1 540.28h-466.82l-0.046874-342.52c140.16 20.719 260.44 113.06 315.89 246.84l110.86-45.938c-81.844-197.53-272.86-325.22-486.71-325.31l-60.047-0.046875 0.046875 466.97h-342.52c20.719-140.16 113.06-260.44 246.84-315.84l-45.938-110.86c-197.53 81.844-325.22 272.86-325.31 486.66l-0.046875 60.047h466.97v342.52c-140.16-20.766-260.44-113.06-315.84-246.84l-110.86 45.938c81.844 197.53 272.86 325.22 486.66 325.31h60.047v-466.92h342.52c-20.766 140.11-113.06 260.39-246.84 315.84l45.938 110.86c197.53-81.844 325.22-272.86 325.31-486.71z"/>
</svg>
